PathFileType	4	(X/Y/Z)	Patient4_TMGait_0pt2_03_right_06.trc.trc
DataRate	CameraRate	NumFrames	NumMarkers	Units	OrigDataRate	OrigDataStartFrame	OrigNumFrames
46.666666666667	46.666666666667	6	33	mm	46.666666666667	36	       141
Frame#	Time	Sacral			L.Shoulder			Chest			R.Shoulder			Neck			R.ASIS			L.ASIS			R.Thigh.Superior			R.Thigh.Lateral			R.Thigh.Inferior			R.Patella			L.Thigh.Superior			L.Thigh.Lateral			L.Thigh.Inferior			L.Patella			L.Shank.Superior			L.Shank.Lateral			L.Shank.Inferior			R.Shank.Superior			R.Shank.Lateral			R.Shank.Inferior			R.Heel			R.Midfoot.Superior			R.Midfoot.Lateral			R.Toe			L.Heel			L.Midfoot.Lateral			L.Midfoot.Superior			L.Toe			L.Elbow			L.Wrist			R.Elbow			R.Wrist			
		X1	Y1	Z1	X2	Y2	Z2	X3	Y3	Z3	X4	Y4	Z4	X5	Y5	Z5	X6	Y6	Z6	X7	Y7	Z7	X8	Y8	Z8	X9	Y9	Z9	X10	Y10	Z10	X11	Y11	Z11	X12	Y12	Z12	X13	Y13	Z13	X14	Y14	Z14	X15	Y15	Z15	X16	Y16	Z16	X17	Y17	Z17	X18	Y18	Z18	X19	Y19	Z19	X20	Y20	Z20	X21	Y21	Z21	X22	Y22	Z22	X23	Y23	Z23	X24	Y24	Z24	X25	Y25	Z25	X26	Y26	Z26	X27	Y27	Z27	X28	Y28	Z28	X29	Y29	Z29	X30	Y30	Z30	X31	Y31	Z31	X32	Y32	Z32	X33	Y33	Z33	

36	13.460000000000	809.719840002908	1018.735901208071	526.800432725907	1057.828767065077	1409.825622970673	333.594951198403	1144.737157956094	1327.294707287024	497.820732100025	1079.135775336672	1422.310398825069	666.753496305757	1066.076607015983	1479.478527761012	484.994940699551	1034.794896764742	929.316067534358	642.290470514285	1018.334548990819	953.804370929837	363.454047258921	1083.502674510321	741.237789758441	598.542978512634	1020.340059584107	629.097648460292	666.570132447546	1090.257920445826	582.347808975550	576.249546343228	1100.490552900062	493.999702519185	583.141728860338	1049.050074149741	737.705034503314	385.153214697952	961.313492446273	633.440346344639	306.600410374284	1041.280719782563	547.741925275711	367.338491432398	1039.013943534500	477.086283312360	366.504396636666	1001.678534361044	410.998946854747	347.453027519731	901.113434079089	316.266983100729	277.653501438239	935.009168241761	190.792637705064	333.688186186624	1071.205762980697	403.518292355763	597.096640187563	1011.565573250156	304.015108277908	677.549182988145	1036.465389659074	206.001270259613	609.688713350839	896.945063970941	42.587381528632	618.031800597174	1072.218022680680	97.442787176240	611.234548965336	996.092995022069	36.586128883568	670.040156504565	1195.060369087101	48.132106086828	608.403056432270	792.148460103747	42.056178225204	351.123325150513	869.381013518969	37.993851920074	274.043285082439	953.647791777301	96.575096150757	306.091984417858	1080.971758302550	42.497915249117	279.653980416605	1071.177770432313	1059.749371944358	218.582120846062	1300.676018073213	995.125531199945	312.995101221223	1012.383954287661	1081.865552532571	800.965813497567	1154.466091595798	865.638641885325	789.590028349297	
37	13.481428571429	809.787781058102	1019.896615014707	532.790080538906	1057.672195585776	1410.923879231185	339.444985381586	1144.664868566325	1328.275207104336	503.587018998308	1079.205778779563	1423.285139642444	672.597570566247	1065.910822661406	1480.491294406257	490.955937149978	1034.720782476582	930.135618615542	648.018158968948	1017.909560153303	954.186534067931	369.921180451002	1081.780687692137	741.355085402433	603.246663131563	1017.904224647883	629.191554852222	670.934633758660	1086.826448284733	582.349438472387	579.902422284815	1096.330671003474	494.112722152439	586.144421802666	1046.755179973845	737.873855602097	389.219476936750	957.368540061206	634.998253151258	309.887764674822	1037.381098998289	548.239691245007	369.268584650804	1035.041339790106	477.738888178057	367.913257196198	997.586150168232	412.308852632953	348.770231302023	896.481687479840	317.888805478632	279.135520666497	931.295218437312	191.806799220265	333.817235246843	1067.179141001882	403.761174424009	599.420072324904	1008.129637098567	303.598928597931	679.436511198660	1032.447094273872	206.092571127420	610.584983437896	892.870022200141	42.783721727812	618.234247663455	1068.226021497416	97.337156515804	611.365631623384	992.035983707101	36.702838954453	670.161348805262	1191.069393632234	47.684674371241	608.412065429353	788.452311687798	42.998506443845	351.052768300786	865.664429988672	38.327902470151	274.010859518841	950.387168773332	96.388122531399	305.726368485334	1077.393365582959	41.607307569852	279.305925916943	1062.008134797203	1059.953345844198	223.424199899298	1284.732297530683	973.112380781746	315.946220992243	1024.173859645481	1080.586811356199	807.023156100574	1181.388831209127	876.023813955385	792.341892433463	
38	13.502857142857	809.800095509133	1020.875134360073	538.737035715408	1057.284564760442	1411.868680754264	345.107451417037	1144.468959455220	1329.169267452431	509.139357928485	1079.208585516576	1424.227830102698	678.213624990451	1065.603636533297	1481.388658955088	496.689122929428	1034.656048904186	930.809476745871	653.544393398052	1017.371980018874	954.623663088824	376.217743071581	1080.168006479378	741.418978205076	607.728274125099	1015.648435727238	629.182765978458	675.118247705148	1083.600271794067	582.267590930821	583.376279627595	1092.413563228396	494.117313082393	588.967946138240	1045.015900646559	738.404594165822	393.032308917212	954.204517173521	636.530624056247	313.067240543672	1034.574875028271	548.973704966804	371.036348249612	1032.356401746945	478.454189510760	369.131006991859	994.537749111231	413.599006910762	350.036446496599	892.609789231444	319.708265158818	280.617938836494	928.109726658301	192.939983285261	333.947766929871	1063.327286987156	403.908580795852	601.604594400135	1004.809668835526	303.147356450090	681.180392337411	1028.506622224604	206.129516836402	611.376307393158	888.759241587862	42.958069452623	618.389358869110	1064.204498844118	97.199561738519	611.442727596922	987.938464588062	36.797010175594	670.236135205433	1187.038439998215	47.156523771194	608.390776702093	784.939134768291	44.367847351103	351.018358302670	862.074304278516	38.874968756851	273.988075020737	947.383994134816	96.248928146435	305.334649487950	1073.926664920831	40.588393299455	278.924671369217	1052.873084492431	1060.283429342879	228.249534644347	1266.238514839115	950.499844921819	317.975310410319	1035.716670895074	1079.891806935257	812.773367163032	1207.723249965317	888.720320426632	793.956333173955	
39	13.524285714286	809.731658851696	1021.614999367408	544.647246651955	1056.612686752690	1412.638271804712	350.610476323597	1144.132076024246	1329.919085581674	514.466837081324	1079.170782827936	1425.048012941360	683.633616663280	1065.132239437924	1482.119274317260	502.235987044363	1034.621018696791	931.289805071644	658.830305004220	1016.665280071829	955.096755985570	382.262752138792	1078.745874373556	741.409418579637	611.958894410741	1013.682115189997	629.040123493276	679.066858436953	1080.717121804346	582.091795665531	586.632062377713	1088.909876871582	493.977283739158	591.573328055096	1043.995513268153	739.368778330654	396.627304351494	952.130994460637	637.975704842401	316.182222876243	1033.264941052635	549.984946385625	372.720802007036	1031.391795139770	479.213007289133	370.219223510347	992.885073609555	414.833364719255	351.328942992075	889.774498060404	321.818183951973	282.190951896139	925.574701918114	194.277864366581	334.181172151914	1059.770971384333	403.916049521465	603.616138045756	1001.670532766507	302.643659888271	682.751727137061	1024.676781636960	206.086001052577	612.052793283250	884.598029534540	43.097046980144	618.489053192397	1060.133701448207	97.043026623044	611.471485675136	983.784600951739	36.866066903670	670.265778151483	1182.955200444664	46.585214001644	608.352922599770	781.609709745351	46.426435257857	351.126924423061	858.574775361794	39.851155058080	274.069417377142	944.635765901900	96.285089758785	305.009639578710	1070.478996719006	39.474495780568	278.572159330637	1043.698772796886	1060.690481059612	233.170112129791	1245.039104385919	927.874605631148	318.990686928409	1047.008042741386	1079.670719830191	818.217795655257	1233.067340272158	903.560119696538	794.441754806006	
40	13.545714285714	809.558430046933	1022.053441456732	550.506300795834	1055.610708093067	1413.214142486079	355.972019608754	1143.629485863651	1330.473974231041	519.556511083687	1079.089958887869	1425.655373518240	688.883472840194	1064.461780072950	1482.633928363234	507.631195802948	1034.629697993825	931.536586141918	663.842232620477	1015.751452394160	955.551330546285	387.992917554361	1077.601168454881	741.308423088104	615.908549947906	1012.127544705164	628.732841103040	682.727992440864	1078.322168463431	581.814342014063	589.626582605235	1085.998698652719	493.658379493834	593.918090186016	1043.846068908952	740.816794557963	400.073926547143	951.458175568356	639.274050043526	319.287412846836	1033.834858820182	551.312029140082	374.430700043114	1032.546972950066	480.004068932583	371.266505724769	992.960620174817	415.986938051692	352.740229889872	888.247530682386	324.336419760742	283.962959761888	923.786300514693	195.944117215154	334.641179911643	1056.640829642981	403.742398678765	605.418319360059	998.794671981869	302.075181157599	684.128998518710	1021.000645261338	205.940826348333	612.609880003612	880.385719103133	43.197612038333	618.537333914557	1056.009564530519	96.880038001405	611.462243501482	979.573654197059	36.911560608602	670.258511240595	1178.820490790168	46.001990359639	608.310773906150	778.440874948451	49.509711792724	351.513369420381	855.101444515533	41.548513175869	274.376443772603	942.109742538402	96.676914167646	304.875752587704	1066.908573333434	38.325918674071	278.336880102238	1034.367497425841	1061.138048574331	238.261826205305	1221.121895003550	905.854539747106	318.948402087887	1058.064072324871	1079.796385180119	823.343259879284	1257.057062586704	920.296004408223	793.842820183817	
41	13.567142857143	809.262097608471	1022.118417349463	556.281864933108	1054.238795248914	1413.576608009749	361.197937522006	1142.929508037395	1330.789780209920	524.392876888915	1078.935817029064	1425.961720393602	693.979804569319	1063.546779038495	1482.884464520063	512.898865886218	1034.692276543675	931.514319748942	668.553441446343	1014.618312696056	955.900565546563	393.365433452850	1076.824065130135	741.097980493561	619.546981793148	1011.112116119416	628.227654239365	686.051691035611	1076.561501603745	581.426437550142	592.313977721895	1083.855967631375	493.125931144295	595.958025977695	1044.692394070229	742.765133314602	403.469206058897	952.468680740284	640.374087620504	322.445840106961	1036.604040213016	552.983341178612	376.301874314186	1036.139616687966	480.823409138910	372.387347453709	995.037823276285	417.047158609789	354.371222586623	888.263629854555	327.397632683496	286.049311442118	922.795955128646	198.094290205931	335.462447885819	1054.069694625013	403.347649640039	606.973842152498	996.272780727362	301.430506819154	685.296202990549	1017.526217882159	205.675201923551	613.046232953632	876.131405740510	43.264207115232	618.545633320156	1051.839237571415	96.720943954773	611.427200394259	975.314831979286	36.937369576589	670.226235147253	1174.643159366967	45.430056920788	608.273779427731	775.379842461262	54.004074668864	352.325064031061	851.560905129054	44.318598144968	275.044848628121	939.735283164366	97.651833950677	305.078524377287	1063.027569217539	37.236872841921	278.328939167340	1024.731914220290	1061.605555375641	243.551747390714	1194.654087322788	885.061075786405	317.866955445874	1068.910053809258	1080.133544141712	828.117991875025	1279.380795435585	938.618809344296	792.234000508763	
